<svg width="20" height="20" viewBox="0 0 20 20" fill="none" xmlns="http://www.w3.org/2000/svg">
<path d="M19.7285 6.8291L18.1816 5.28223C17.8145 4.91504 17.2207 4.91504 16.8574 5.28223L7.50195 14.6377L3.15039 10.2822C2.7832 9.91504 2.18945 9.91504 1.82617 10.2822L0.275391 11.833C-0.0917969 12.2002 -0.0917969 12.7939 0.275391 13.1611L6.83789 19.7275C7.20508 20.0947 7.79883 20.0947 8.16211 19.7275L19.7246 8.15723C20.0918 7.78613 20.0918 7.19238 19.7285 6.8291ZM7.06055 10.9697C7.30273 11.2158 7.70117 11.2158 7.94336 10.9697L16.0684 2.83691C16.3105 2.59082 16.3105 2.19629 16.0684 1.9541L14.3027 0.18457C14.0605 -0.0615234 13.6621 -0.0615234 13.4199 0.18457L7.50195 6.10254L5.33789 3.93457C5.0957 3.68848 4.69727 3.68848 4.45508 3.93457L2.68555 5.7041C2.44336 5.9502 2.44336 6.34473 2.68555 6.58691L7.06055 10.9697Z" fill="#351C15"/>
</svg>
